<mxfile host="app.diagrams.net" modified="2020-11-04T19:43:42.268Z" agent="5.0 (Windows NT 10.0; Win64; x64) AppleWebKit/537.36 (KHTML, like Gecko) Chrome/86.0.4240.183 Safari/537.36" etag="8j6VlTOxa40CMdPMEpLL" version="13.9.0" type="github">
  <diagram id="w2wjrcr9flUoTN5zD-UQ" name="Page-1">
    <mxGraphModel dx="705" dy="425" grid="1" gridSize="10" guides="1" tooltips="1" connect="1" arrows="1" fold="1" page="1" pageScale="1" pageWidth="850" pageHeight="1100" math="0" shadow="0">
      <root>
        <mxCell id="0" />
        <mxCell id="1" parent="0" />
        <mxCell id="1eVZeBFMe8PsIi9BE2N1-1" value="" style="rounded=0;whiteSpace=wrap;html=1;" parent="1" vertex="1">
          <mxGeometry x="200" y="120" width="480" height="380" as="geometry" />
        </mxCell>
        <mxCell id="1eVZeBFMe8PsIi9BE2N1-2" value="&lt;font style=&quot;font-size: 20px&quot;&gt;Inventory Management&lt;br&gt;&lt;/font&gt;" style="text;html=1;strokeColor=none;fillColor=none;align=center;verticalAlign=middle;whiteSpace=wrap;rounded=0;fontStyle=1" parent="1" vertex="1">
          <mxGeometry x="313.90999999999997" y="120" width="252.18" height="20" as="geometry" />
        </mxCell>
        <mxCell id="1eVZeBFMe8PsIi9BE2N1-3" style="edgeStyle=orthogonalEdgeStyle;rounded=0;orthogonalLoop=1;jettySize=auto;html=1;entryX=-0.04;entryY=0.445;entryDx=0;entryDy=0;entryPerimeter=0;endArrow=none;endFill=0;" parent="1" source="1eVZeBFMe8PsIi9BE2N1-4" target="1eVZeBFMe8PsIi9BE2N1-5" edge="1">
          <mxGeometry relative="1" as="geometry" />
        </mxCell>
        <mxCell id="1eVZeBFMe8PsIi9BE2N1-4" value="&lt;span style=&quot;font-size: 16px&quot;&gt;Manager&lt;/span&gt;" style="shape=umlActor;verticalLabelPosition=bottom;verticalAlign=top;html=1;outlineConnect=0;" parent="1" vertex="1">
          <mxGeometry x="130" y="140" width="60" height="90" as="geometry" />
        </mxCell>
        <mxCell id="1eVZeBFMe8PsIi9BE2N1-5" value="&lt;font style=&quot;font-size: 16px&quot;&gt;Log In&lt;/font&gt;" style="ellipse;whiteSpace=wrap;html=1;" parent="1" vertex="1">
          <mxGeometry x="250" y="165" width="60" height="45" as="geometry" />
        </mxCell>
        <mxCell id="1eVZeBFMe8PsIi9BE2N1-8" value="&lt;font style=&quot;font-size: 16px&quot;&gt;View Graphical Data&lt;/font&gt;" style="ellipse;whiteSpace=wrap;html=1;" parent="1" vertex="1">
          <mxGeometry x="510" y="240" width="170" height="45" as="geometry" />
        </mxCell>
        <mxCell id="1eVZeBFMe8PsIi9BE2N1-9" value="&amp;lt;&amp;lt;Include&amp;gt;&amp;gt;" style="rounded=0;orthogonalLoop=1;jettySize=auto;html=1;exitX=0.5;exitY=0;exitDx=0;exitDy=0;entryX=0.5;entryY=1;entryDx=0;entryDy=0;endArrow=open;endFill=0;dashed=1;" parent="1" source="1eVZeBFMe8PsIi9BE2N1-10" target="1eVZeBFMe8PsIi9BE2N1-5" edge="1">
          <mxGeometry relative="1" as="geometry" />
        </mxCell>
        <mxCell id="1eVZeBFMe8PsIi9BE2N1-10" value="&lt;font style=&quot;font-size: 16px&quot;&gt;Manage Promos&lt;/font&gt;" style="ellipse;whiteSpace=wrap;html=1;" parent="1" vertex="1">
          <mxGeometry x="210" y="380" width="140" height="45" as="geometry" />
        </mxCell>
        <mxCell id="1eVZeBFMe8PsIi9BE2N1-11" value="&lt;font style=&quot;font-size: 16px&quot;&gt;View Inventory&lt;/font&gt;" style="ellipse;whiteSpace=wrap;html=1;" parent="1" vertex="1">
          <mxGeometry x="425" y="150" width="170" height="40" as="geometry" />
        </mxCell>
        <mxCell id="1eVZeBFMe8PsIi9BE2N1-15" value="&lt;span style=&quot;font-size: 16px&quot;&gt;Add Inventory&lt;/span&gt;" style="ellipse;whiteSpace=wrap;html=1;" parent="1" vertex="1">
          <mxGeometry x="310" y="310" width="150" height="45" as="geometry" />
        </mxCell>
        <mxCell id="1eVZeBFMe8PsIi9BE2N1-16" value="&amp;lt;&amp;lt;Include&amp;gt;&amp;gt;" style="rounded=0;orthogonalLoop=1;jettySize=auto;html=1;exitX=0.5;exitY=0;exitDx=0;exitDy=0;endArrow=open;endFill=0;dashed=1;entryX=0.61;entryY=0.975;entryDx=0;entryDy=0;entryPerimeter=0;" parent="1" source="1eVZeBFMe8PsIi9BE2N1-8" target="1eVZeBFMe8PsIi9BE2N1-11" edge="1">
          <mxGeometry relative="1" as="geometry">
            <mxPoint x="439.8" y="395" as="sourcePoint" />
            <mxPoint x="439.8" y="350" as="targetPoint" />
          </mxGeometry>
        </mxCell>
        <mxCell id="1eVZeBFMe8PsIi9BE2N1-17" value="&amp;lt;&amp;lt;Include&amp;gt;&amp;gt;" style="rounded=0;orthogonalLoop=1;jettySize=auto;html=1;exitX=0.035;exitY=0.409;exitDx=0;exitDy=0;entryX=0.979;entryY=0.444;entryDx=0;entryDy=0;endArrow=open;endFill=0;dashed=1;exitPerimeter=0;entryPerimeter=0;" parent="1" source="1eVZeBFMe8PsIi9BE2N1-11" target="1eVZeBFMe8PsIi9BE2N1-5" edge="1">
          <mxGeometry relative="1" as="geometry">
            <mxPoint x="490" y="400" as="sourcePoint" />
            <mxPoint x="520" y="350" as="targetPoint" />
          </mxGeometry>
        </mxCell>
        <mxCell id="1eVZeBFMe8PsIi9BE2N1-23" value="&amp;lt;&amp;lt;Include&amp;gt;&amp;gt;" style="rounded=0;orthogonalLoop=1;jettySize=auto;html=1;exitX=0.676;exitY=0.085;exitDx=0;exitDy=0;entryX=0;entryY=1;entryDx=0;entryDy=0;endArrow=open;endFill=0;dashed=1;exitPerimeter=0;" parent="1" source="1eVZeBFMe8PsIi9BE2N1-15" target="1eVZeBFMe8PsIi9BE2N1-11" edge="1">
          <mxGeometry relative="1" as="geometry">
            <mxPoint x="380" y="508.4000000000001" as="sourcePoint" />
            <mxPoint x="381.1999999999998" y="440.0000000000001" as="targetPoint" />
          </mxGeometry>
        </mxCell>
        <mxCell id="RmDEQWJAu_xvA0UMosGH-2" value="&lt;font style=&quot;font-size: 16px&quot;&gt;Remove Inventory&lt;/font&gt;" style="ellipse;whiteSpace=wrap;html=1;" parent="1" vertex="1">
          <mxGeometry x="420" y="275" width="140" height="45" as="geometry" />
        </mxCell>
        <mxCell id="RmDEQWJAu_xvA0UMosGH-3" value="&amp;lt;&amp;lt;Include&amp;gt;&amp;gt;" style="rounded=0;orthogonalLoop=1;jettySize=auto;html=1;exitX=0.624;exitY=0.011;exitDx=0;exitDy=0;entryX=0.4;entryY=0.864;entryDx=0;entryDy=0;endArrow=open;endFill=0;dashed=1;exitPerimeter=0;entryPerimeter=0;" parent="1" source="RmDEQWJAu_xvA0UMosGH-2" target="1eVZeBFMe8PsIi9BE2N1-11" edge="1">
          <mxGeometry relative="1" as="geometry">
            <mxPoint x="421.39999999999986" y="443.82499999999993" as="sourcePoint" />
            <mxPoint x="365.44000000000005" y="218.6049999999999" as="targetPoint" />
          </mxGeometry>
        </mxCell>
        <mxCell id="_LV_Kg_tYw-UlJax6nkr-1" value="&lt;font style=&quot;font-size: 16px&quot;&gt;Edit Menu&lt;/font&gt;" style="ellipse;whiteSpace=wrap;html=1;" vertex="1" parent="1">
          <mxGeometry x="426.09000000000003" y="380" width="140" height="45" as="geometry" />
        </mxCell>
        <mxCell id="_LV_Kg_tYw-UlJax6nkr-2" value="&amp;lt;&amp;lt;Include&amp;gt;&amp;gt;" style="rounded=0;orthogonalLoop=1;jettySize=auto;html=1;exitX=0;exitY=0.5;exitDx=0;exitDy=0;entryX=1;entryY=0.5;entryDx=0;entryDy=0;endArrow=open;endFill=0;dashed=1;" edge="1" parent="1" source="_LV_Kg_tYw-UlJax6nkr-1" target="1eVZeBFMe8PsIi9BE2N1-10">
          <mxGeometry relative="1" as="geometry">
            <mxPoint x="290" y="390" as="sourcePoint" />
            <mxPoint x="290" y="220" as="targetPoint" />
          </mxGeometry>
        </mxCell>
      </root>
    </mxGraphModel>
  </diagram>
</mxfile>
